STARTFONT 2.3
FONT -FontForge-Indie Flower-Book-R-Normal--8-80-72-72-P-37-ISO10646-1
SIZE 8 72 72  4
FONTBOUNDINGBOX 10 12 -1 -4
COMMENT "Generated by fontforge, http://fontforge.sourceforge.net"
COMMENT "Copyright (c) 2010, Kimberly Geswein (kimberlygeswein.com)"
STARTPROPERTIES 40
FOUNDRY "FontForge"
FAMILY_NAME "Indie Flower"
WEIGHT_NAME "Book"
SLANT "R"
SETWIDTH_NAME "Normal"
ADD_STYLE_NAME ""
PIXEL_SIZE 8
POINT_SIZE 80
RESOLUTION_X 72
RESOLUTION_Y 72
SPACING "P"
AVERAGE_WIDTH 37
CHARSET_REGISTRY "ISO10646"
CHARSET_ENCODING "1"
FONTNAME_REGISTRY ""
CHARSET_COLLECTIONS "ISO8859-2 ISO8859-9 ISO8859-4 ISO10646-1"
BITS_PER_PIXEL 4
FONT_NAME "IndieFlower"
FACE_NAME "Indie Flower"
COPYRIGHT "Copyright (c) 2010, Kimberly Geswein (kimberlygeswein.com)"
FONT_VERSION "1.001 2010"
FONT_ASCENT 6
FONT_DESCENT 2
UNDERLINE_POSITION -1
UNDERLINE_THICKNESS 1
X_HEIGHT 2
CAP_HEIGHT 4
RAW_ASCENT 799
RAW_DESCENT 200
NORM_SPACE 3
RELATIVE_WEIGHT 40
RELATIVE_SETWIDTH 50
SUPERSCRIPT_X 0
SUPERSCRIPT_Y 3
SUPERSCRIPT_SIZE 5
SUBSCRIPT_X 0
SUBSCRIPT_Y 1
SUBSCRIPT_SIZE 5
AVG_LOWERCASE_WIDTH 36
AVG_UPPERCASE_WIDTH 44
ENDPROPERTIES
CHARS 356
STARTCHAR space
ENCODING 32
SWIDTH 375 0
DWIDTH 3 0
BBX 1 1 0 0
BITMAP
00
ENDCHAR
STARTCHAR exclam
ENCODING 33
SWIDTH 149 0
DWIDTH 1 0
BBX 1 7 0 0
BITMAP
30
60
60
60
60
00
90
ENDCHAR
STARTCHAR quotedbl
ENCODING 34
SWIDTH 234 0
DWIDTH 2 0
BBX 2 3 0 4
BITMAP
11
66
67
ENDCHAR
STARTCHAR numbersign
ENCODING 35
SWIDTH 768 0
DWIDTH 6 0
BBX 6 4 0 0
BITMAP
004500
36BA74
46A996
003430
ENDCHAR
STARTCHAR dollar
ENCODING 36
SWIDTH 581 0
DWIDTH 5 0
BBX 5 8 0 0
BITMAP
002000
007600
06A800
058400
00C910
41A160
39B350
03B400
ENDCHAR
STARTCHAR percent
ENCODING 37
SWIDTH 636 0
DWIDTH 5 0
BBX 5 5 0 0
BITMAP
230310
872400
566230
054670
071850
ENDCHAR
STARTCHAR ampersand
ENCODING 38
SWIDTH 457 0
DWIDTH 4 0
BBX 4 6 0 0
BITMAP
0500
0C10
0A22
3971
7470
8750
ENDCHAR
STARTCHAR quotesingle
ENCODING 39
SWIDTH 102 0
DWIDTH 1 0
BBX 1 2 0 4
BITMAP
40
70
ENDCHAR
STARTCHAR parenleft
ENCODING 40
SWIDTH 421 0
DWIDTH 3 0
BBX 4 6 0 -1
BITMAP
0171
1600
6000
7000
7400
0410
ENDCHAR
STARTCHAR parenright
ENCODING 41
SWIDTH 290 0
DWIDTH 2 0
BBX 3 6 0 -1
BITMAP
4400
0800
0520
0700
5500
4000
ENDCHAR
STARTCHAR asterisk
ENCODING 42
SWIDTH 412 0
DWIDTH 3 0
BBX 3 3 0 2
BITMAP
4570
6E80
4480
ENDCHAR
STARTCHAR plus
ENCODING 43
SWIDTH 459 0
DWIDTH 4 0
BBX 4 4 0 0
BITMAP
0200
0710
6B83
0510
ENDCHAR
STARTCHAR comma
ENCODING 44
SWIDTH 130 0
DWIDTH 1 0
BBX 1 4 0 -2
BITMAP
10
70
70
30
ENDCHAR
STARTCHAR hyphen
ENCODING 45
SWIDTH 375 0
DWIDTH 3 0
BBX 3 1 0 2
BITMAP
5740
ENDCHAR
STARTCHAR period
ENCODING 46
SWIDTH 204 0
DWIDTH 2 0
BBX 2 2 0 0
BITMAP
31
84
ENDCHAR
STARTCHAR slash
ENCODING 47
SWIDTH 309 0
DWIDTH 2 0
BBX 3 6 0 0
BITMAP
0140
0510
0700
1600
6100
7000
ENDCHAR
STARTCHAR zero
ENCODING 48
SWIDTH 430 0
DWIDTH 3 0
BBX 4 4 0 0
BITMAP
0520
6281
6043
4780
ENDCHAR
STARTCHAR one
ENCODING 49
SWIDTH 318 0
DWIDTH 3 0
BBX 3 5 0 0
BITMAP
0140
0640
4B20
3700
0600
ENDCHAR
STARTCHAR two
ENCODING 50
SWIDTH 497 0
DWIDTH 4 0
BBX 4 5 0 0
BITMAP
0040
0345
0007
2042
9BA5
ENDCHAR
STARTCHAR three
ENCODING 51
SWIDTH 430 0
DWIDTH 3 0
BBX 4 5 0 0
BITMAP
2310
3370
3C50
2071
4782
ENDCHAR
STARTCHAR four
ENCODING 52
SWIDTH 412 0
DWIDTH 3 0
BBX 4 5 0 0
BITMAP
6000
7021
60B0
49A0
0071
ENDCHAR
STARTCHAR five
ENCODING 53
SWIDTH 571 0
DWIDTH 5 0
BBX 5 6 0 0
BITMAP
014400
063310
0B3000
014500
200700
588600
ENDCHAR
STARTCHAR six
ENCODING 54
SWIDTH 440 0
DWIDTH 4 0
BBX 4 5 0 0
BITMAP
0372
3500
9660
7044
6881
ENDCHAR
STARTCHAR seven
ENCODING 55
SWIDTH 412 0
DWIDTH 3 0
BBX 3 5 0 0
BITMAP
3310
2360
1680
1650
0600
ENDCHAR
STARTCHAR eight
ENCODING 56
SWIDTH 375 0
DWIDTH 3 0
BBX 3 5 0 0
BITMAP
3710
7430
5A00
7160
3660
ENDCHAR
STARTCHAR nine
ENCODING 57
SWIDTH 300 0
DWIDTH 2 0
BBX 3 5 0 0
BITMAP
5710
7540
4A20
0510
0410
ENDCHAR
STARTCHAR colon
ENCODING 58
SWIDTH 84 0
DWIDTH 1 0
BBX 1 3 0 0
BITMAP
30
00
20
ENDCHAR
STARTCHAR semicolon
ENCODING 59
SWIDTH 128 0
DWIDTH 1 0
BBX 2 6 -1 -2
BITMAP
01
04
00
06
08
12
ENDCHAR
STARTCHAR less
ENCODING 60
SWIDTH 487 0
DWIDTH 4 0
BBX 4 4 0 0
BITMAP
0002
0272
4500
7772
ENDCHAR
STARTCHAR equal
ENCODING 61
SWIDTH 524 0
DWIDTH 4 0
BBX 4 3 0 1
BITMAP
0111
4655
5774
ENDCHAR
STARTCHAR greater
ENCODING 62
SWIDTH 403 0
DWIDTH 3 0
BBX 4 4 0 0
BITMAP
5200
0591
0470
6400
ENDCHAR
STARTCHAR question
ENCODING 63
SWIDTH 272 0
DWIDTH 2 0
BBX 2 7 0 0
BITMAP
67
07
09
44
26
00
04
ENDCHAR
STARTCHAR at
ENCODING 64
SWIDTH 815 0
DWIDTH 7 0
BBX 7 8 0 0
BITMAP
00110000
06657200
51000710
50557240
53308330
63569800
17320000
02767600
ENDCHAR
STARTCHAR A
ENCODING 65
SWIDTH 562 0
DWIDTH 5 0
BBX 5 6 0 0
BITMAP
167300
500600
500610
855830
600340
600430
ENDCHAR
STARTCHAR B
ENCODING 66
SWIDTH 741 0
DWIDTH 6 0
BBX 6 6 0 0
BITMAP
268300
271620
037A00
007481
007008
019776
ENDCHAR
STARTCHAR C
ENCODING 67
SWIDTH 515 0
DWIDTH 4 0
BBX 4 6 0 0
BITMAP
0020
0781
5100
5000
6000
4875
ENDCHAR
STARTCHAR D
ENCODING 68
SWIDTH 741 0
DWIDTH 6 0
BBX 6 6 0 -1
BITMAP
57A720
006073
006107
005217
008792
000100
ENDCHAR
STARTCHAR E
ENCODING 69
SWIDTH 524 0
DWIDTH 4 0
BBX 4 5 0 0
BITMAP
8764
7011
9651
6000
7895
ENDCHAR
STARTCHAR F
ENCODING 70
SWIDTH 514 0
DWIDTH 4 0
BBX 6 5 -1 0
BITMAP
16A785
006001
03B830
007000
007000
ENDCHAR
STARTCHAR G
ENCODING 71
SWIDTH 571 0
DWIDTH 5 0
BBX 5 6 0 -1
BITMAP
000200
056510
524400
602530
475930
000130
ENDCHAR
STARTCHAR H
ENCODING 72
SWIDTH 524 0
DWIDTH 4 0
BBX 4 6 0 0
BITMAP
1002
5006
6017
8777
8107
4106
ENDCHAR
STARTCHAR I
ENCODING 73
SWIDTH 167 0
DWIDTH 1 0
BBX 2 5 0 0
BITMAP
20
60
60
61
43
ENDCHAR
STARTCHAR J
ENCODING 74
SWIDTH 439 0
DWIDTH 4 0
BBX 4 6 0 0
BITMAP
0030
0051
0034
5015
4215
0582
ENDCHAR
STARTCHAR K
ENCODING 75
SWIDTH 468 0
DWIDTH 4 0
BBX 4 5 0 0
BITMAP
3140
6810
9200
7810
6064
ENDCHAR
STARTCHAR L
ENCODING 76
SWIDTH 346 0
DWIDTH 3 0
BBX 3 5 0 0
BITMAP
1000
7000
7000
6000
6840
ENDCHAR
STARTCHAR M
ENCODING 77
SWIDTH 534 0
DWIDTH 4 0
BBX 4 5 0 0
BITMAP
7007
788A
7117
7008
5008
ENDCHAR
STARTCHAR N
ENCODING 78
SWIDTH 609 0
DWIDTH 5 0
BBX 5 5 0 0
BITMAP
100000
800620
A30170
670070
718830
ENDCHAR
STARTCHAR O
ENCODING 79
SWIDTH 609 0
DWIDTH 5 0
BBX 5 4 0 0
BITMAP
477300
600630
700070
286730
ENDCHAR
STARTCHAR P
ENCODING 80
SWIDTH 627 0
DWIDTH 5 0
BBX 5 5 0 0
BITMAP
667610
103170
016280
00B500
005000
ENDCHAR
STARTCHAR Q
ENCODING 81
SWIDTH 642 0
DWIDTH 5 0
BBX 6 6 0 -1
BITMAP
022000
446800
601270
605160
189D50
000071
ENDCHAR
STARTCHAR R
ENCODING 82
SWIDTH 579 0
DWIDTH 5 0
BBX 5 6 0 -1
BITMAP
877700
150820
0C7300
095000
043600
000120
ENDCHAR
STARTCHAR S
ENCODING 83
SWIDTH 627 0
DWIDTH 5 0
BBX 5 5 0 0
BITMAP
056710
070000
027500
600370
366660
ENDCHAR
STARTCHAR T
ENCODING 84
SWIDTH 581 0
DWIDTH 5 0
BBX 6 5 0 0
BITMAP
579772
006000
006100
004300
002700
ENDCHAR
STARTCHAR U
ENCODING 85
SWIDTH 571 0
DWIDTH 5 0
BBX 5 5 0 0
BITMAP
200100
600700
600700
600920
297540
ENDCHAR
STARTCHAR V
ENCODING 86
SWIDTH 421 0
DWIDTH 3 0
BBX 4 5 0 0
BITMAP
1000
8052
5480
0970
0650
ENDCHAR
STARTCHAR W
ENCODING 87
SWIDTH 703 0
DWIDTH 6 0
BBX 6 4 0 0
BITMAP
500060
703044
70A007
484882
ENDCHAR
STARTCHAR X
ENCODING 88
SWIDTH 534 0
DWIDTH 4 0
BBX 5 6 0 -1
BITMAP
100000
251710
077000
187000
704300
200000
ENDCHAR
STARTCHAR Y
ENCODING 89
SWIDTH 403 0
DWIDTH 3 0
BBX 3 7 0 -1
BITMAP
1000
7050
3890
0170
0420
0600
0100
ENDCHAR
STARTCHAR Z
ENCODING 90
SWIDTH 571 0
DWIDTH 5 0
BBX 5 5 0 0
BITMAP
667000
003200
06C700
025000
087830
ENDCHAR
STARTCHAR bracketleft
ENCODING 91
SWIDTH 477 0
DWIDTH 4 0
BBX 5 7 0 -1
BITMAP
036300
840000
700000
520000
240000
050000
086720
ENDCHAR
STARTCHAR backslash
ENCODING 92
SWIDTH 430 0
DWIDTH 3 0
BBX 4 5 0 0
BITMAP
2000
7200
0910
0290
0053
ENDCHAR
STARTCHAR bracketright
ENCODING 93
SWIDTH 430 0
DWIDTH 3 0
BBX 4 8 0 -1
BITMAP
5730
0080
0061
0041
0032
0033
0034
4993
ENDCHAR
STARTCHAR asciicircum
ENCODING 94
SWIDTH 375 0
DWIDTH 3 0
BBX 3 2 0 4
BITMAP
0910
4550
ENDCHAR
STARTCHAR underscore
ENCODING 95
SWIDTH 656 0
DWIDTH 5 0
BBX 5 1 0 0
BITMAP
467880
ENDCHAR
STARTCHAR grave
ENCODING 96
SWIDTH 172 0
DWIDTH 1 0
BBX 2 2 0 3
BITMAP
30
31
ENDCHAR
STARTCHAR a
ENCODING 97
SWIDTH 505 0
DWIDTH 4 0
BBX 4 4 0 0
BITMAP
0670
1677
7129
5885
ENDCHAR
STARTCHAR b
ENCODING 98
SWIDTH 497 0
DWIDTH 4 0
BBX 4 5 0 0
BITMAP
7000
7000
7771
7017
3977
ENDCHAR
STARTCHAR c
ENCODING 99
SWIDTH 449 0
DWIDTH 4 0
BBX 4 4 0 0
BITMAP
1640
7030
7000
5762
ENDCHAR
STARTCHAR d
ENCODING 100
SWIDTH 524 0
DWIDTH 4 0
BBX 4 6 0 0
BITMAP
0042
0027
2849
915B
803D
5875
ENDCHAR
STARTCHAR e
ENCODING 101
SWIDTH 515 0
DWIDTH 4 0
BBX 4 5 0 0
BITMAP
0100
4580
7370
7400
3874
ENDCHAR
STARTCHAR f
ENCODING 102
SWIDTH 376 0
DWIDTH 3 0
BBX 4 6 0 0
BITMAP
0571
1514
4300
8A50
0800
0440
ENDCHAR
STARTCHAR g
ENCODING 103
SWIDTH 366 0
DWIDTH 3 0
BBX 4 8 -1 -4
BITMAP
0030
0546
0609
068B
0007
1007
7007
2886
ENDCHAR
STARTCHAR h
ENCODING 104
SWIDTH 427 0
DWIDTH 3 0
BBX 5 6 -1 0
BITMAP
130000
070000
088300
070700
070510
060610
ENDCHAR
STARTCHAR i
ENCODING 105
SWIDTH 174 0
DWIDTH 1 0
BBX 2 5 0 0
BITMAP
30
30
60
72
43
ENDCHAR
STARTCHAR j
ENCODING 106
SWIDTH 200 0
DWIDTH 2 0
BBX 3 9 -1 -4
BITMAP
0400
0000
0420
0260
0080
0080
7070
5570
0450
ENDCHAR
STARTCHAR k
ENCODING 107
SWIDTH 403 0
DWIDTH 3 0
BBX 4 5 0 0
BITMAP
4000
6130
7600
8300
7681
ENDCHAR
STARTCHAR l
ENCODING 108
SWIDTH 120 0
DWIDTH 1 0
BBX 1 5 0 0
BITMAP
30
70
80
80
60
ENDCHAR
STARTCHAR m
ENCODING 109
SWIDTH 750 0
DWIDTH 6 0
BBX 6 4 0 0
BITMAP
020150
A69846
706207
601206
ENDCHAR
STARTCHAR n
ENCODING 110
SWIDTH 459 0
DWIDTH 4 0
BBX 4 4 0 0
BITMAP
1650
A162
8017
6006
ENDCHAR
STARTCHAR o
ENCODING 111
SWIDTH 487 0
DWIDTH 4 0
BBX 4 4 0 0
BITMAP
0230
5455
6007
5793
ENDCHAR
STARTCHAR p
ENCODING 112
SWIDTH 520 0
DWIDTH 4 0
BBX 4 6 0 -3
BITMAP
2774
9007
B677
9100
5400
1400
ENDCHAR
STARTCHAR q
ENCODING 113
SWIDTH 412 0
DWIDTH 3 0
BBX 3 7 0 -3
BITMAP
3680
6080
6080
48A0
0070
0070
0030
ENDCHAR
STARTCHAR r
ENCODING 114
SWIDTH 346 0
DWIDTH 3 0
BBX 3 4 0 0
BITMAP
4740
7000
7000
5100
ENDCHAR
STARTCHAR s
ENCODING 115
SWIDTH 514 0
DWIDTH 4 0
BBX 4 4 0 0
BITMAP
3640
7230
0467
6778
ENDCHAR
STARTCHAR t
ENCODING 116
SWIDTH 328 0
DWIDTH 3 0
BBX 3 5 0 0
BITMAP
0700
2910
3A20
0800
0700
ENDCHAR
STARTCHAR u
ENCODING 117
SWIDTH 501 0
DWIDTH 4 0
BBX 4 4 0 0
BITMAP
4011
6026
7067
1746
ENDCHAR
STARTCHAR v
ENCODING 118
SWIDTH 389 0
DWIDTH 3 0
BBX 3 3 0 0
BITMAP
7050
5370
0A20
ENDCHAR
STARTCHAR w
ENCODING 119
SWIDTH 656 0
DWIDTH 5 0
BBX 5 4 0 0
BITMAP
100000
703050
608070
488880
ENDCHAR
STARTCHAR x
ENCODING 120
SWIDTH 448 0
DWIDTH 4 0
BBX 4 4 0 -1
BITMAP
8273
1D20
4191
0012
ENDCHAR
STARTCHAR y
ENCODING 121
SWIDTH 487 0
DWIDTH 4 0
BBX 4 8 0 -4
BITMAP
2002
6006
6008
1778
0006
0006
5106
1882
ENDCHAR
STARTCHAR z
ENCODING 122
SWIDTH 459 0
DWIDTH 4 0
BBX 4 5 0 0
BITMAP
0200
6570
1390
3A20
3A83
ENDCHAR
STARTCHAR braceleft
ENCODING 123
SWIDTH 393 0
DWIDTH 3 0
BBX 3 9 0 -1
BITMAP
0010
4650
6000
6200
1C60
3170
1710
6000
2860
ENDCHAR
STARTCHAR bar
ENCODING 124
SWIDTH 149 0
DWIDTH 1 0
BBX 1 6 0 0
BITMAP
10
50
60
60
70
60
ENDCHAR
STARTCHAR braceright
ENCODING 125
SWIDTH 440 0
DWIDTH 4 0
BBX 4 10 0 -2
BITMAP
6630
3080
0360
1700
0B60
0710
0070
0042
2034
6670
ENDCHAR
STARTCHAR asciitilde
ENCODING 126
SWIDTH 402 0
DWIDTH 3 0
BBX 3 2 0 3
BITMAP
3220
4440
ENDCHAR
STARTCHAR nonbreakingspace
ENCODING 160
SWIDTH 375 0
DWIDTH 3 0
BBX 1 1 0 0
BITMAP
00
ENDCHAR
STARTCHAR exclamdown
ENCODING 161
SWIDTH 149 0
DWIDTH 1 0
BBX 1 6 0 0
BITMAP
30
40
40
60
60
60
ENDCHAR
STARTCHAR cent
ENCODING 162
SWIDTH 449 0
DWIDTH 4 0
BBX 4 6 0 -1
BITMAP
0100
1940
7550
7430
6A82
0210
ENDCHAR
STARTCHAR sterling
ENCODING 163
SWIDTH 758 0
DWIDTH 6 0
BBX 6 6 0 0
BITMAP
000475
000603
039A60
026100
006000
CD9810
ENDCHAR
STARTCHAR currency
ENCODING 164
SWIDTH 618 0
DWIDTH 5 0
BBX 5 5 0 0
BITMAP
100000
498A30
240240
171710
344610
ENDCHAR
STARTCHAR yen
ENCODING 165
SWIDTH 389 0
DWIDTH 3 0
BBX 4 6 0 0
BITMAP
6041
2480
0930
4A40
4B40
0800
ENDCHAR
STARTCHAR brokenbar
ENCODING 166
SWIDTH 117 0
DWIDTH 1 0
BBX 1 5 0 0
BITMAP
30
60
50
70
60
ENDCHAR
STARTCHAR section
ENCODING 167
SWIDTH 514 0
DWIDTH 4 0
BBX 4 6 0 0
BITMAP
0420
6454
5A65
8219
1569
4778
ENDCHAR
STARTCHAR dieresis
ENCODING 168
SWIDTH 397 0
DWIDTH 3 0
BBX 3 2 0 3
BITMAP
1110
3340
ENDCHAR
STARTCHAR copyright
ENCODING 169
SWIDTH 667 0
DWIDTH 5 0
BBX 6 5 0 0
BITMAP
036300
447960
660361
773343
28AA60
ENDCHAR
STARTCHAR ordfeminine
ENCODING 170
SWIDTH 266 0
DWIDTH 2 0
BBX 2 3 0 1
BITMAP
25
56
11
ENDCHAR
STARTCHAR guillemotleft
ENCODING 171
SWIDTH 755 0
DWIDTH 6 0
BBX 6 4 0 0
BITMAP
000253
028930
45B630
777451
ENDCHAR
STARTCHAR logicalnot
ENCODING 172
SWIDTH 369 0
DWIDTH 3 0
BBX 3 2 0 2
BITMAP
2320
3370
ENDCHAR
STARTCHAR hyphen_
ENCODING 173
SWIDTH 375 0
DWIDTH 3 0
BBX 3 1 0 2
BITMAP
5740
ENDCHAR
STARTCHAR registered
ENCODING 174
SWIDTH 708 0
DWIDTH 6 0
BBX 6 5 0 0
BITMAP
057500
575870
628852
629342
187850
ENDCHAR
STARTCHAR macron
ENCODING 175
SWIDTH 287 0
DWIDTH 2 0
BBX 3 2 0 3
BITMAP
2510
3210
ENDCHAR
STARTCHAR degree
ENCODING 176
SWIDTH 254 0
DWIDTH 2 0
BBX 2 3 0 2
BITMAP
32
34
44
ENDCHAR
STARTCHAR plusminus
ENCODING 177
SWIDTH 459 0
DWIDTH 4 0
BBX 4 4 0 0
BITMAP
0500
3A83
2630
3772
ENDCHAR
STARTCHAR twosuperior
ENCODING 178
SWIDTH 296 0
DWIDTH 2 0
BBX 2 4 0 1
BITMAP
02
04
55
23
ENDCHAR
STARTCHAR threesuperior
ENCODING 179
SWIDTH 204 0
DWIDTH 2 0
BBX 2 3 0 2
BITMAP
42
53
54
ENDCHAR
STARTCHAR acute
ENCODING 180
SWIDTH 180 0
DWIDTH 1 0
BBX 2 2 0 3
BITMAP
11
60
ENDCHAR
STARTCHAR mu
ENCODING 181
SWIDTH 501 0
DWIDTH 4 0
BBX 4 5 0 -1
BITMAP
4011
7026
B067
8867
3000
ENDCHAR
STARTCHAR paragraph
ENCODING 182
SWIDTH 413 0
DWIDTH 3 0
BBX 3 6 0 -1
BITMAP
0110
9FC0
AEA0
0490
0490
0010
ENDCHAR
STARTCHAR periodcentered
ENCODING 183
SWIDTH 212 0
DWIDTH 2 0
BBX 2 2 0 1
BITMAP
21
52
ENDCHAR
STARTCHAR cedilla
ENCODING 184
SWIDTH 445 0
DWIDTH 4 0
BBX 3 4 1 -3
BITMAP
1000
6200
3530
2500
ENDCHAR
STARTCHAR onesuperior
ENCODING 185
SWIDTH 197 0
DWIDTH 2 0
BBX 2 4 0 1
BITMAP
04
64
42
10
ENDCHAR
STARTCHAR ordmasculine
ENCODING 186
SWIDTH 254 0
DWIDTH 2 0
BBX 2 3 0 2
BITMAP
32
34
44
ENDCHAR
STARTCHAR guillemotright
ENCODING 187
SWIDTH 659 0
DWIDTH 5 0
BBX 5 4 0 0
BITMAP
527400
0595B0
047730
647100
ENDCHAR
STARTCHAR onequarter
ENCODING 188
SWIDTH 626 0
DWIDTH 5 0
BBX 5 6 0 0
BITMAP
014000
165000
365000
076000
055360
061350
ENDCHAR
STARTCHAR onehalf
ENCODING 189
SWIDTH 566 0
DWIDTH 5 0
BBX 5 7 0 -1
BITMAP
023000
074000
675200
083600
070400
069810
010000
ENDCHAR
STARTCHAR threequarters
ENCODING 190
SWIDTH 566 0
DWIDTH 5 0
BBX 5 7 0 -1
BITMAP
002000
334000
446000
468020
054730
060130
030000
ENDCHAR
STARTCHAR questiondown
ENCODING 191
SWIDTH 272 0
DWIDTH 2 0
BBX 3 6 0 0
BITMAP
3000
0000
4700
4500
8000
6620
ENDCHAR
STARTCHAR Agrave
ENCODING 192
SWIDTH 562 0
DWIDTH 5 0
BBX 5 8 0 0
BITMAP
011000
004000
167300
500600
500610
855830
600340
600430
ENDCHAR
STARTCHAR Aacute
ENCODING 193
SWIDTH 562 0
DWIDTH 5 0
BBX 5 8 0 0
BITMAP
012000
050000
167300
500600
500610
855830
600340
600430
ENDCHAR
STARTCHAR Acircumflex
ENCODING 194
SWIDTH 562 0
DWIDTH 5 0
BBX 5 8 0 0
BITMAP
035000
078000
167300
500600
500610
855830
600340
600430
ENDCHAR
STARTCHAR Atilde
ENCODING 195
SWIDTH 562 0
DWIDTH 5 0
BBX 5 8 0 0
BITMAP
020100
447100
167300
500600
500610
855830
600340
600430
ENDCHAR
STARTCHAR Adieresis
ENCODING 196
SWIDTH 562 0
DWIDTH 5 0
BBX 5 8 0 0
BITMAP
021000
055100
167300
500600
500610
855830
600340
600430
ENDCHAR
STARTCHAR Aring
ENCODING 197
SWIDTH 562 0
DWIDTH 5 0
BBX 5 8 0 0
BITMAP
022000
056000
177300
500600
500610
855830
600340
600430
ENDCHAR
STARTCHAR AE
ENCODING 198
SWIDTH 960 0
DWIDTH 8 0
BBX 8 6 0 0
BITMAP
16730000
5007A662
50066020
85589640
60034000
60049893
ENDCHAR
STARTCHAR Ccedilla
ENCODING 199
SWIDTH 515 0
DWIDTH 4 0
BBX 4 9 0 -3
BITMAP
0020
0781
5100
5000
6000
4875
0610
0371
0340
ENDCHAR
STARTCHAR Egrave
ENCODING 200
SWIDTH 524 0
DWIDTH 4 0
BBX 4 7 0 0
BITMAP
0200
0140
8764
7011
9651
6000
7895
ENDCHAR
STARTCHAR Eacute
ENCODING 201
SWIDTH 524 0
DWIDTH 4 0
BBX 4 7 0 0
BITMAP
0010
0520
8764
7011
9651
6000
7895
ENDCHAR
STARTCHAR Ecircumflex
ENCODING 202
SWIDTH 524 0
DWIDTH 4 0
BBX 4 7 0 0
BITMAP
04A0
0531
8764
7011
9651
6000
7895
ENDCHAR
STARTCHAR Edieresis
ENCODING 203
SWIDTH 524 0
DWIDTH 4 0
BBX 4 7 0 0
BITMAP
0110
0660
8764
7011
9651
6000
7895
ENDCHAR
STARTCHAR Igrave
ENCODING 204
SWIDTH 167 0
DWIDTH 1 0
BBX 2 6 0 0
BITMAP
60
20
60
60
61
43
ENDCHAR
STARTCHAR Iacute
ENCODING 205
SWIDTH 167 0
DWIDTH 1 0
BBX 3 6 -1 0
BITMAP
0700
1300
0600
0600
0610
0430
ENDCHAR
STARTCHAR Icircumflex
ENCODING 206
SWIDTH 167 0
DWIDTH 1 0
BBX 3 7 -1 0
BITMAP
0940
2350
0200
0600
0600
0610
0430
ENDCHAR
STARTCHAR Idieresis
ENCODING 207
SWIDTH 167 0
DWIDTH 1 0
BBX 3 6 -1 0
BITMAP
4310
2400
0600
0600
0610
0430
ENDCHAR
STARTCHAR Eth
ENCODING 208
SWIDTH 741 0
DWIDTH 6 0
BBX 6 6 0 -1
BITMAP
57A720
007073
01A727
005217
008792
000100
ENDCHAR
STARTCHAR Ntilde
ENCODING 209
SWIDTH 609 0
DWIDTH 5 0
BBX 5 6 0 0
BITMAP
043400
132200
800620
A30170
670070
718830
ENDCHAR
STARTCHAR Ograve
ENCODING 210
SWIDTH 609 0
DWIDTH 5 0
BBX 5 6 0 0
BITMAP
005000
002000
477300
600630
700070
286730
ENDCHAR
STARTCHAR Oacute
ENCODING 211
SWIDTH 609 0
DWIDTH 5 0
BBX 5 6 0 0
BITMAP
004000
022000
477300
600630
700070
286730
ENDCHAR
STARTCHAR Ocircumflex
ENCODING 212
SWIDTH 609 0
DWIDTH 5 0
BBX 5 6 0 0
BITMAP
096000
224000
477300
600630
700070
286730
ENDCHAR
STARTCHAR Otilde
ENCODING 213
SWIDTH 609 0
DWIDTH 5 0
BBX 5 6 0 0
BITMAP
020100
336100
477300
600630
700070
286730
ENDCHAR
STARTCHAR Odieresis
ENCODING 214
SWIDTH 609 0
DWIDTH 5 0
BBX 5 6 0 0
BITMAP
032200
032200
477300
600630
700070
286730
ENDCHAR
STARTCHAR multiply
ENCODING 215
SWIDTH 448 0
DWIDTH 4 0
BBX 3 3 0 0
BITMAP
4140
1D20
2230
ENDCHAR
STARTCHAR Oslash
ENCODING 216
SWIDTH 609 0
DWIDTH 5 0
BBX 5 6 0 -1
BITMAP
003300
47B300
607630
744070
2C6730
050000
ENDCHAR
STARTCHAR Ugrave
ENCODING 217
SWIDTH 571 0
DWIDTH 5 0
BBX 5 6 0 0
BITMAP
005000
202100
600700
600700
600920
297540
ENDCHAR
STARTCHAR Uacute
ENCODING 218
SWIDTH 571 0
DWIDTH 5 0
BBX 5 6 0 0
BITMAP
004000
231100
600700
600700
600920
297540
ENDCHAR
STARTCHAR Ucircumflex
ENCODING 219
SWIDTH 571 0
DWIDTH 5 0
BBX 5 7 0 0
BITMAP
01B100
042300
200100
600700
600700
600920
297540
ENDCHAR
STARTCHAR Udieresis
ENCODING 220
SWIDTH 571 0
DWIDTH 5 0
BBX 5 6 0 0
BITMAP
032100
232200
600700
600700
600920
297540
ENDCHAR
STARTCHAR Yacute
ENCODING 221
SWIDTH 403 0
DWIDTH 3 0
BBX 3 8 0 -1
BITMAP
0140
1410
7050
3890
0170
0420
0600
0100
ENDCHAR
STARTCHAR Thorn
ENCODING 222
SWIDTH 497 0
DWIDTH 4 0
BBX 4 7 0 -2
BITMAP
6000
7000
8771
8017
7877
6000
1000
ENDCHAR
STARTCHAR germandbls
ENCODING 223
SWIDTH 590 0
DWIDTH 5 0
BBX 5 7 0 -1
BITMAP
572000
807000
759000
605700
500170
536630
620000
ENDCHAR
STARTCHAR agrave
ENCODING 224
SWIDTH 505 0
DWIDTH 4 0
BBX 4 6 0 0
BITMAP
0100
0330
0670
1677
7129
5885
ENDCHAR
STARTCHAR aacute
ENCODING 225
SWIDTH 505 0
DWIDTH 4 0
BBX 4 6 0 0
BITMAP
0120
0500
0670
1677
7129
5885
ENDCHAR
STARTCHAR acircumflex
ENCODING 226
SWIDTH 505 0
DWIDTH 4 0
BBX 4 6 0 0
BITMAP
0360
0671
0670
1677
7129
5885
ENDCHAR
STARTCHAR atilde
ENCODING 227
SWIDTH 505 0
DWIDTH 4 0
BBX 4 6 0 0
BITMAP
2532
3040
0670
1677
7129
5885
ENDCHAR
STARTCHAR adieresis
ENCODING 228
SWIDTH 505 0
DWIDTH 4 0
BBX 4 6 0 0
BITMAP
0110
0660
0670
1677
7129
5885
ENDCHAR
STARTCHAR aring
ENCODING 229
SWIDTH 505 0
DWIDTH 4 0
BBX 4 6 0 0
BITMAP
0110
0560
0680
1677
7129
5885
ENDCHAR
STARTCHAR ae
ENCODING 230
SWIDTH 881 0
DWIDTH 7 0
BBX 7 5 0 -1
BITMAP
06736700
167B0800
712A6200
58887540
00001200
ENDCHAR
STARTCHAR ccedilla
ENCODING 231
SWIDTH 449 0
DWIDTH 4 0
BBX 4 7 0 -3
BITMAP
1640
7030
7000
5862
0620
0371
0340
ENDCHAR
STARTCHAR egrave
ENCODING 232
SWIDTH 515 0
DWIDTH 4 0
BBX 4 6 0 0
BITMAP
0200
0420
4580
7370
7400
3874
ENDCHAR
STARTCHAR eacute
ENCODING 233
SWIDTH 515 0
DWIDTH 4 0
BBX 4 6 0 0
BITMAP
0220
0500
4580
7370
7400
3874
ENDCHAR
STARTCHAR ecircumflex
ENCODING 234
SWIDTH 515 0
DWIDTH 4 0
BBX 4 6 0 0
BITMAP
0270
0771
4580
7370
7400
3874
ENDCHAR
STARTCHAR edieresis
ENCODING 235
SWIDTH 515 0
DWIDTH 4 0
BBX 4 5 0 0
BITMAP
1770
4580
7370
7400
3874
ENDCHAR
STARTCHAR igrave
ENCODING 236
SWIDTH 174 0
DWIDTH 1 0
BBX 2 5 0 0
BITMAP
61
30
60
72
43
ENDCHAR
STARTCHAR iacute
ENCODING 237
SWIDTH 174 0
DWIDTH 1 0
BBX 2 5 0 0
BITMAP
70
30
60
72
43
ENDCHAR
STARTCHAR icircumflex
ENCODING 238
SWIDTH 174 0
DWIDTH 1 0
BBX 3 6 -1 0
BITMAP
0730
2570
0300
0600
0720
0430
ENDCHAR
STARTCHAR idieresis
ENCODING 239
SWIDTH 174 0
DWIDTH 1 0
BBX 3 5 -1 0
BITMAP
3460
0300
0600
0720
0430
ENDCHAR
STARTCHAR eth
ENCODING 240
SWIDTH 407 0
DWIDTH 3 0
BBX 4 6 0 -1
BITMAP
2100
3A91
19A0
7162
6690
0100
ENDCHAR
STARTCHAR ntilde
ENCODING 241
SWIDTH 459 0
DWIDTH 4 0
BBX 4 5 0 0
BITMAP
6660
1650
A162
8017
6006
ENDCHAR
STARTCHAR ograve
ENCODING 242
SWIDTH 487 0
DWIDTH 4 0
BBX 4 5 0 0
BITMAP
0210
0370
5455
6007
5793
ENDCHAR
STARTCHAR oacute
ENCODING 243
SWIDTH 487 0
DWIDTH 4 0
BBX 4 5 0 0
BITMAP
0430
0530
5455
6007
5793
ENDCHAR
STARTCHAR ocircumflex
ENCODING 244
SWIDTH 487 0
DWIDTH 4 0
BBX 4 6 0 0
BITMAP
0110
0890
1460
5455
6007
5793
ENDCHAR
STARTCHAR otilde
ENCODING 245
SWIDTH 487 0
DWIDTH 4 0
BBX 4 5 0 0
BITMAP
1402
3490
5455
6007
5793
ENDCHAR
STARTCHAR odieresis
ENCODING 246
SWIDTH 487 0
DWIDTH 4 0
BBX 4 5 0 0
BITMAP
0110
0890
5455
6007
5793
ENDCHAR
STARTCHAR divide
ENCODING 247
SWIDTH 335 0
DWIDTH 3 0
BBX 3 3 0 0
BITMAP
0300
4620
0200
ENDCHAR
STARTCHAR oslash
ENCODING 248
SWIDTH 487 0
DWIDTH 4 0
BBX 4 4 0 0
BITMAP
0260
55A5
6817
7A93
ENDCHAR
STARTCHAR ugrave
ENCODING 249
SWIDTH 501 0
DWIDTH 4 0
BBX 4 6 0 0
BITMAP
0300
0410
4011
6026
7067
1746
ENDCHAR
STARTCHAR uacute
ENCODING 250
SWIDTH 501 0
DWIDTH 4 0
BBX 4 6 0 0
BITMAP
0020
0510
4011
6026
7067
1746
ENDCHAR
STARTCHAR ucircumflex
ENCODING 251
SWIDTH 501 0
DWIDTH 4 0
BBX 4 6 0 0
BITMAP
0360
0671
4011
6026
7067
1746
ENDCHAR
STARTCHAR udieresis
ENCODING 252
SWIDTH 501 0
DWIDTH 4 0
BBX 4 5 0 0
BITMAP
1570
4011
6026
7067
1746
ENDCHAR
STARTCHAR yacute
ENCODING 253
SWIDTH 487 0
DWIDTH 4 0
BBX 4 10 0 -4
BITMAP
0020
0610
2002
6006
6008
1778
0006
0006
5106
1882
ENDCHAR
STARTCHAR thorn
ENCODING 254
SWIDTH 520 0
DWIDTH 4 0
BBX 4 6 0 -2
BITMAP
6000
8776
8008
9775
7000
3000
ENDCHAR
STARTCHAR ydieresis
ENCODING 255
SWIDTH 487 0
DWIDTH 4 0
BBX 4 9 0 -4
BITMAP
1560
2002
6006
6008
1778
0006
0006
5106
1882
ENDCHAR
STARTCHAR Amacron
ENCODING 256
SWIDTH 562 0
DWIDTH 5 0
BBX 5 8 0 0
BITMAP
012000
065000
167300
500600
500610
855830
600340
600430
ENDCHAR
STARTCHAR amacron
ENCODING 257
SWIDTH 505 0
DWIDTH 4 0
BBX 4 6 0 0
BITMAP
0220
0540
0670
1677
7129
5885
ENDCHAR
STARTCHAR Abreve
ENCODING 258
SWIDTH 562 0
DWIDTH 5 0
BBX 5 8 0 0
BITMAP
023000
013000
167300
500600
500610
855830
600340
600430
ENDCHAR
STARTCHAR abreve
ENCODING 259
SWIDTH 505 0
DWIDTH 4 0
BBX 4 6 0 0
BITMAP
0010
0430
0670
1677
7129
5885
ENDCHAR
STARTCHAR Aogonek
ENCODING 260
SWIDTH 562 0
DWIDTH 5 0
BBX 5 8 0 -2
BITMAP
167300
500600
500610
855830
600340
600630
000810
000110
ENDCHAR
STARTCHAR aogonek
ENCODING 261
SWIDTH 505 0
DWIDTH 4 0
BBX 4 5 0 -1
BITMAP
0670
1677
7129
5885
0073
ENDCHAR
STARTCHAR Cacute
ENCODING 262
SWIDTH 515 0
DWIDTH 4 0
BBX 4 7 0 0
BITMAP
0030
0250
0781
5100
5000
6000
4875
ENDCHAR
STARTCHAR cacute
ENCODING 263
SWIDTH 449 0
DWIDTH 4 0
BBX 4 6 0 0
BITMAP
0010
0530
1640
7030
7000
5762
ENDCHAR
STARTCHAR Ccircumflex
ENCODING 264
SWIDTH 515 0
DWIDTH 4 0
BBX 4 7 0 0
BITMAP
04A0
0551
0781
5100
5000
6000
4875
ENDCHAR
STARTCHAR ccircumflex
ENCODING 265
SWIDTH 449 0
DWIDTH 4 0
BBX 4 6 0 0
BITMAP
0640
1670
1640
7030
7000
5762
ENDCHAR
STARTCHAR Cdotaccent
ENCODING 266
SWIDTH 515 0
DWIDTH 4 0
BBX 4 7 0 0
BITMAP
0010
0040
0781
5100
5000
6000
4875
ENDCHAR
STARTCHAR cdotaccent
ENCODING 267
SWIDTH 449 0
DWIDTH 4 0
BBX 4 5 0 0
BITMAP
0300
1740
7030
7000
5762
ENDCHAR
STARTCHAR Ccaron
ENCODING 268
SWIDTH 515 0
DWIDTH 4 0
BBX 4 7 0 0
BITMAP
0333
0060
0781
5100
5000
6000
4875
ENDCHAR
STARTCHAR ccaron
ENCODING 269
SWIDTH 449 0
DWIDTH 4 0
BBX 4 5 0 0
BITMAP
1660
1640
7030
7000
5762
ENDCHAR
STARTCHAR Dcaron
ENCODING 270
SWIDTH 741 0
DWIDTH 6 0
BBX 6 7 0 -1
BITMAP
005700
57A720
006073
006107
005217
008792
000100
ENDCHAR
STARTCHAR dcaron
ENCODING 271
SWIDTH 582 0
DWIDTH 5 0
BBX 5 6 0 0
BITMAP
004260
002760
284900
915B00
803D00
587500
ENDCHAR
STARTCHAR Dcroat
ENCODING 272
SWIDTH 741 0
DWIDTH 6 0
BBX 6 6 0 -1
BITMAP
57A720
006073
02A507
005217
008792
000100
ENDCHAR
STARTCHAR dcroat
ENCODING 273
SWIDTH 524 0
DWIDTH 4 0
BBX 5 6 0 0
BITMAP
004200
029B10
284900
915B00
803D00
587500
ENDCHAR
STARTCHAR Emacron
ENCODING 274
SWIDTH 524 0
DWIDTH 4 0
BBX 4 6 0 0
BITMAP
0770
8764
7011
9651
6000
7895
ENDCHAR
STARTCHAR emacron
ENCODING 275
SWIDTH 515 0
DWIDTH 4 0
BBX 4 6 0 0
BITMAP
0230
0540
4580
7370
7400
3874
ENDCHAR
STARTCHAR Ebreve
ENCODING 276
SWIDTH 524 0
DWIDTH 4 0
BBX 4 7 0 0
BITMAP
0110
0330
8764
7011
9651
6000
7895
ENDCHAR
STARTCHAR ebreve
ENCODING 277
SWIDTH 515 0
DWIDTH 4 0
BBX 4 6 0 0
BITMAP
0120
0240
4580
7370
7400
3874
ENDCHAR
STARTCHAR Edotaccent
ENCODING 278
SWIDTH 524 0
DWIDTH 4 0
BBX 4 6 0 0
BITMAP
0220
8764
7011
9651
6000
7895
ENDCHAR
STARTCHAR edotaccent
ENCODING 279
SWIDTH 515 0
DWIDTH 4 0
BBX 4 6 0 0
BITMAP
0200
0300
4580
7370
7400
3874
ENDCHAR
STARTCHAR Eogonek
ENCODING 280
SWIDTH 524 0
DWIDTH 4 0
BBX 4 7 0 -2
BITMAP
8764
7011
9651
6000
7896
0081
0011
ENDCHAR
STARTCHAR eogonek
ENCODING 281
SWIDTH 515 0
DWIDTH 4 0
BBX 4 7 0 -2
BITMAP
0100
4580
7370
7400
3884
0081
0011
ENDCHAR
STARTCHAR Ecaron
ENCODING 282
SWIDTH 524 0
DWIDTH 4 0
BBX 4 6 0 0
BITMAP
0581
8764
7011
9651
6000
7895
ENDCHAR
STARTCHAR ecaron
ENCODING 283
SWIDTH 515 0
DWIDTH 4 0
BBX 4 6 0 0
BITMAP
0441
0240
4580
7370
7400
3874
ENDCHAR
STARTCHAR Gcircumflex
ENCODING 284
SWIDTH 571 0
DWIDTH 5 0
BBX 5 8 0 -1
BITMAP
001100
007A00
002400
056510
524400
602530
475930
000130
ENDCHAR
STARTCHAR gcircumflex
ENCODING 285
SWIDTH 366 0
DWIDTH 3 0
BBX 4 10 -1 -4
BITMAP
0091
0455
0030
0546
0609
068B
0007
1007
7007
2886
ENDCHAR
STARTCHAR Gbreve
ENCODING 286
SWIDTH 571 0
DWIDTH 5 0
BBX 5 7 0 -1
BITMAP
001000
025200
056510
524400
602530
475930
000130
ENDCHAR
STARTCHAR gbreve
ENCODING 287
SWIDTH 366 0
DWIDTH 3 0
BBX 4 9 -1 -4
BITMAP
0111
0071
0546
0609
068B
0007
1007
7007
2886
ENDCHAR
STARTCHAR Gdotaccent
ENCODING 288
SWIDTH 571 0
DWIDTH 5 0
BBX 5 6 0 -1
BITMAP
004200
056510
524400
602530
475930
000130
ENDCHAR
STARTCHAR gdotaccent
ENCODING 289
SWIDTH 366 0
DWIDTH 3 0
BBX 4 9 -1 -4
BITMAP
0030
0040
0546
0609
068B
0007
1007
7007
2886
ENDCHAR
STARTCHAR Gcommaaccent
ENCODING 290
SWIDTH 571 0
DWIDTH 5 0
BBX 5 8 0 -3
BITMAP
000200
056510
524400
602530
475930
001130
007000
003000
ENDCHAR
STARTCHAR gcommaaccent
ENCODING 291
SWIDTH 366 0
DWIDTH 3 0
BBX 4 11 -1 -4
BITMAP
0060
0050
0000
0030
0546
0609
068B
0007
1007
7007
2886
ENDCHAR
STARTCHAR Hcircumflex
ENCODING 292
SWIDTH 524 0
DWIDTH 4 0
BBX 4 8 0 0
BITMAP
0140
0791
1002
5006
6017
8777
8107
4106
ENDCHAR
STARTCHAR hcircumflex
ENCODING 293
SWIDTH 427 0
DWIDTH 3 0
BBX 5 7 -1 0
BITMAP
002100
148900
081100
088300
070700
070510
060610
ENDCHAR
STARTCHAR hbar
ENCODING 295
SWIDTH 427 0
DWIDTH 3 0
BBX 5 6 -1 0
BITMAP
130000
3B2000
188300
070700
070510
060610
ENDCHAR
STARTCHAR Itilde
ENCODING 296
SWIDTH 167 0
DWIDTH 1 0
BBX 3 6 -1 0
BITMAP
3440
3330
0600
0600
0610
0430
ENDCHAR
STARTCHAR itilde
ENCODING 297
SWIDTH 174 0
DWIDTH 1 0
BBX 4 6 -1 0
BITMAP
0201
4361
0300
0600
0720
0430
ENDCHAR
STARTCHAR imacron
ENCODING 299
SWIDTH 174 0
DWIDTH 1 0
BBX 3 5 -1 0
BITMAP
2750
0300
0600
0720
0430
ENDCHAR
STARTCHAR Ibreve
ENCODING 300
SWIDTH 167 0
DWIDTH 1 0
BBX 2 7 0 0
BITMAP
01
53
20
60
60
61
43
ENDCHAR
STARTCHAR ibreve
ENCODING 301
SWIDTH 174 0
DWIDTH 1 0
BBX 2 5 0 0
BITMAP
52
30
60
72
43
ENDCHAR
STARTCHAR Iogonek
ENCODING 302
SWIDTH 167 0
DWIDTH 1 0
BBX 2 7 0 -2
BITMAP
20
60
60
61
63
81
11
ENDCHAR
STARTCHAR iogonek
ENCODING 303
SWIDTH 174 0
DWIDTH 1 0
BBX 3 7 -1 -2
BITMAP
0300
0300
0600
0720
0630
1810
0110
ENDCHAR
STARTCHAR Idotaccent
ENCODING 304
SWIDTH 167 0
DWIDTH 1 0
BBX 2 6 0 0
BITMAP
40
20
60
60
61
43
ENDCHAR
STARTCHAR dotlessi
ENCODING 305
SWIDTH 174 0
DWIDTH 1 0
BBX 2 4 0 0
BITMAP
30
60
72
43
ENDCHAR
STARTCHAR Jcircumflex
ENCODING 308
SWIDTH 439 0
DWIDTH 4 0
BBX 4 8 0 0
BITMAP
0061
0367
0030
0051
0034
5015
4215
0582
ENDCHAR
STARTCHAR jcircumflex
ENCODING 309
SWIDTH 200 0
DWIDTH 2 0
BBX 3 10 -1 -4
BITMAP
0640
1670
0000
0420
0260
0080
0080
7070
5570
0450
ENDCHAR
STARTCHAR Kcommaaccent
ENCODING 310
SWIDTH 468 0
DWIDTH 4 0
BBX 4 8 0 -3
BITMAP
3140
6810
9200
7810
6064
0100
0520
0300
ENDCHAR
STARTCHAR kcommaaccent
ENCODING 311
SWIDTH 403 0
DWIDTH 3 0
BBX 4 8 0 -3
BITMAP
4000
6130
7600
8300
7681
0100
0700
0400
ENDCHAR
STARTCHAR Lacute
ENCODING 313
SWIDTH 346 0
DWIDTH 3 0
BBX 3 6 0 0
BITMAP
0420
1200
7000
7000
6000
6840
ENDCHAR
STARTCHAR lacute
ENCODING 314
SWIDTH 120 0
DWIDTH 1 0
BBX 1 6 0 0
BITMAP
70
30
70
80
80
60
ENDCHAR
STARTCHAR Lcommaaccent
ENCODING 315
SWIDTH 346 0
DWIDTH 3 0
BBX 3 8 0 -3
BITMAP
1000
7000
7000
6000
6840
0100
0700
0400
ENDCHAR
STARTCHAR lcommaaccent
ENCODING 316
SWIDTH 120 0
DWIDTH 1 0
BBX 1 8 0 -3
BITMAP
30
70
80
80
60
10
70
40
ENDCHAR
STARTCHAR Lcaron
ENCODING 317
SWIDTH 346 0
DWIDTH 3 0
BBX 3 6 0 0
BITMAP
0300
1700
7100
7000
6000
6840
ENDCHAR
STARTCHAR lcaron
ENCODING 318
SWIDTH 222 0
DWIDTH 2 0
BBX 2 6 0 0
BITMAP
04
37
70
80
80
60
ENDCHAR
STARTCHAR Ldot
ENCODING 319
SWIDTH 346 0
DWIDTH 3 0
BBX 3 5 0 0
BITMAP
1000
7000
7300
7700
6840
ENDCHAR
STARTCHAR ldot
ENCODING 320
SWIDTH 333 0
DWIDTH 3 0
BBX 3 5 0 0
BITMAP
3000
7000
8210
8520
6000
ENDCHAR
STARTCHAR Lslash
ENCODING 321
SWIDTH 346 0
DWIDTH 3 0
BBX 3 5 0 0
BITMAP
1100
5200
6300
A200
3870
ENDCHAR
STARTCHAR lslash
ENCODING 322
SWIDTH 120 0
DWIDTH 1 0
BBX 3 5 -1 0
BITMAP
0400
0700
1B20
2800
0500
ENDCHAR
STARTCHAR Nacute
ENCODING 323
SWIDTH 609 0
DWIDTH 5 0
BBX 5 6 0 0
BITMAP
004000
122000
800620
A30170
670070
718830
ENDCHAR
STARTCHAR nacute
ENCODING 324
SWIDTH 459 0
DWIDTH 4 0
BBX 4 6 0 0
BITMAP
0110
0600
1650
A162
8017
6006
ENDCHAR
STARTCHAR Ncommaaccent
ENCODING 325
SWIDTH 609 0
DWIDTH 5 0
BBX 5 8 0 -3
BITMAP
100000
800620
A30170
670070
718830
001000
007000
004000
ENDCHAR
STARTCHAR ncommaaccent
ENCODING 326
SWIDTH 459 0
DWIDTH 4 0
BBX 4 7 0 -3
BITMAP
1650
A162
8017
6006
0100
0610
0300
ENDCHAR
STARTCHAR Ncaron
ENCODING 327
SWIDTH 609 0
DWIDTH 5 0
BBX 5 6 0 0
BITMAP
028300
100000
800620
A30170
670070
718830
ENDCHAR
STARTCHAR ncaron
ENCODING 328
SWIDTH 459 0
DWIDTH 4 0
BBX 4 5 0 0
BITMAP
0660
1650
A162
8017
6006
ENDCHAR
STARTCHAR napostrophe
ENCODING 329
SWIDTH 459 0
DWIDTH 4 0
BBX 4 6 0 0
BITMAP
1100
3400
3650
A162
8017
6006
ENDCHAR
STARTCHAR Omacron
ENCODING 332
SWIDTH 609 0
DWIDTH 5 0
BBX 5 6 0 0
BITMAP
037300
010000
477300
600630
700070
286730
ENDCHAR
STARTCHAR omacron
ENCODING 333
SWIDTH 487 0
DWIDTH 4 0
BBX 4 5 0 0
BITMAP
0440
0660
5455
6007
5793
ENDCHAR
STARTCHAR Obreve
ENCODING 334
SWIDTH 609 0
DWIDTH 5 0
BBX 5 5 0 0
BITMAP
015000
477300
600630
700070
286730
ENDCHAR
STARTCHAR obreve
ENCODING 335
SWIDTH 487 0
DWIDTH 4 0
BBX 4 5 0 0
BITMAP
0530
0330
5455
6007
5793
ENDCHAR
STARTCHAR Ohungarumlaut
ENCODING 336
SWIDTH 609 0
DWIDTH 5 0
BBX 5 6 0 0
BITMAP
035100
012000
477300
600630
700070
286730
ENDCHAR
STARTCHAR ohungarumlaut
ENCODING 337
SWIDTH 487 0
DWIDTH 4 0
BBX 4 5 0 0
BITMAP
0420
0660
5455
6007
5793
ENDCHAR
STARTCHAR OE
ENCODING 338
SWIDTH 848 0
DWIDTH 7 0
BBX 7 4 0 0
BITMAP
47785520
604A4510
70171000
28886730
ENDCHAR
STARTCHAR oe
ENCODING 339
SWIDTH 875 0
DWIDTH 7 0
BBX 7 5 0 -1
BITMAP
02336600
54590700
600A6200
57976430
00002410
ENDCHAR
STARTCHAR Racute
ENCODING 340
SWIDTH 579 0
DWIDTH 5 0
BBX 5 8 0 -1
BITMAP
002000
006000
877700
150820
0C7300
095000
043600
000120
ENDCHAR
STARTCHAR racute
ENCODING 341
SWIDTH 346 0
DWIDTH 3 0
BBX 3 6 0 0
BITMAP
0100
0700
4740
7000
7000
5100
ENDCHAR
STARTCHAR Rcommaaccent
ENCODING 342
SWIDTH 579 0
DWIDTH 5 0
BBX 5 8 0 -3
BITMAP
877700
150820
0C7300
095000
043600
000120
007000
004000
ENDCHAR
STARTCHAR rcommaaccent
ENCODING 343
SWIDTH 346 0
DWIDTH 3 0
BBX 3 7 0 -3
BITMAP
4740
7000
7000
5100
0100
0700
0400
ENDCHAR
STARTCHAR Rcaron
ENCODING 344
SWIDTH 579 0
DWIDTH 5 0
BBX 5 8 0 -1
BITMAP
034200
004000
877700
150820
0C7300
095000
043600
000120
ENDCHAR
STARTCHAR rcaron
ENCODING 345
SWIDTH 346 0
DWIDTH 3 0
BBX 3 5 0 0
BITMAP
3730
4740
7000
7000
5100
ENDCHAR
STARTCHAR Sacute
ENCODING 346
SWIDTH 627 0
DWIDTH 5 0
BBX 5 7 0 0
BITMAP
002000
015000
056710
070000
027500
600370
366660
ENDCHAR
STARTCHAR sacute
ENCODING 347
SWIDTH 514 0
DWIDTH 4 0
BBX 4 6 0 0
BITMAP
0030
0320
3640
7230
0467
6778
ENDCHAR
STARTCHAR Scircumflex
ENCODING 348
SWIDTH 627 0
DWIDTH 5 0
BBX 5 7 0 0
BITMAP
00B300
032400
056710
070000
027500
600370
366660
ENDCHAR
STARTCHAR scircumflex
ENCODING 349
SWIDTH 514 0
DWIDTH 4 0
BBX 4 6 0 0
BITMAP
0370
0661
3640
7230
0467
6778
ENDCHAR
STARTCHAR Scedilla
ENCODING 350
SWIDTH 627 0
DWIDTH 5 0
BBX 5 8 0 -3
BITMAP
056710
070000
027500
600370
366660
043000
023600
015200
ENDCHAR
STARTCHAR scedilla
ENCODING 351
SWIDTH 514 0
DWIDTH 4 0
BBX 4 7 0 -3
BITMAP
3640
7230
0467
6778
0610
0371
0340
ENDCHAR
STARTCHAR Scaron
ENCODING 352
SWIDTH 627 0
DWIDTH 5 0
BBX 5 6 0 0
BITMAP
027400
056710
070000
027500
600370
366660
ENDCHAR
STARTCHAR scaron
ENCODING 353
SWIDTH 514 0
DWIDTH 4 0
BBX 4 5 0 0
BITMAP
0571
3640
7230
0467
6778
ENDCHAR
STARTCHAR Tcommaaccent
ENCODING 354
SWIDTH 581 0
DWIDTH 5 0
BBX 6 8 0 -3
BITMAP
579772
006000
006100
004300
002700
001200
001600
001100
ENDCHAR
STARTCHAR tcommaaccent
ENCODING 355
SWIDTH 328 0
DWIDTH 3 0
BBX 3 8 0 -3
BITMAP
0700
2910
3A20
0800
0700
0100
0700
0300
ENDCHAR
STARTCHAR Tcaron
ENCODING 356
SWIDTH 581 0
DWIDTH 5 0
BBX 6 6 0 0
BITMAP
038200
579772
006000
006100
004300
002700
ENDCHAR
STARTCHAR tcaron
ENCODING 357
SWIDTH 431 0
DWIDTH 3 0
BBX 4 6 0 0
BITMAP
0022
0725
2910
3A20
0800
0700
ENDCHAR
STARTCHAR Utilde
ENCODING 360
SWIDTH 571 0
DWIDTH 5 0
BBX 5 6 0 0
BITMAP
053300
223200
600700
600700
600920
297540
ENDCHAR
STARTCHAR utilde
ENCODING 361
SWIDTH 501 0
DWIDTH 4 0
BBX 4 6 0 0
BITMAP
0402
2361
4011
6026
7067
1746
ENDCHAR
STARTCHAR Umacron
ENCODING 362
SWIDTH 571 0
DWIDTH 5 0
BBX 5 6 0 0
BITMAP
047200
210100
600700
600700
600920
297540
ENDCHAR
STARTCHAR umacron
ENCODING 363
SWIDTH 501 0
DWIDTH 4 0
BBX 4 5 0 0
BITMAP
1750
4011
6026
7067
1746
ENDCHAR
STARTCHAR Ubreve
ENCODING 364
SWIDTH 571 0
DWIDTH 5 0
BBX 5 6 0 0
BITMAP
001000
225100
600700
600700
600920
297540
ENDCHAR
STARTCHAR ubreve
ENCODING 365
SWIDTH 501 0
DWIDTH 4 0
BBX 4 5 0 0
BITMAP
0530
4011
6026
7067
1746
ENDCHAR
STARTCHAR Uring
ENCODING 366
SWIDTH 571 0
DWIDTH 5 0
BBX 5 6 0 0
BITMAP
035000
224100
600700
600700
600920
297540
ENDCHAR
STARTCHAR uring
ENCODING 367
SWIDTH 501 0
DWIDTH 4 0
BBX 4 5 0 0
BITMAP
0330
4441
6026
7067
1746
ENDCHAR
STARTCHAR Uhungarumlaut
ENCODING 368
SWIDTH 571 0
DWIDTH 5 0
BBX 5 6 0 0
BITMAP
045000
212100
600700
600700
600920
297540
ENDCHAR
STARTCHAR uhungarumlaut
ENCODING 369
SWIDTH 501 0
DWIDTH 4 0
BBX 4 6 0 0
BITMAP
0220
0450
4011
6026
7067
1746
ENDCHAR
STARTCHAR Uogonek
ENCODING 370
SWIDTH 571 0
DWIDTH 5 0
BBX 5 6 0 -2
BITMAP
600500
600700
600610
374960
033710
000230
ENDCHAR
STARTCHAR uogonek
ENCODING 371
SWIDTH 501 0
DWIDTH 4 0
BBX 4 5 0 -1
BITMAP
4011
6026
7067
1758
0055
ENDCHAR
STARTCHAR Wcircumflex
ENCODING 372
SWIDTH 703 0
DWIDTH 6 0
BBX 6 7 0 0
BITMAP
007600
014500
000000
500060
703044
70A007
484882
ENDCHAR
STARTCHAR wcircumflex
ENCODING 373
SWIDTH 656 0
DWIDTH 5 0
BBX 5 6 0 0
BITMAP
008200
035600
100000
703050
608070
488880
ENDCHAR
STARTCHAR Ycircumflex
ENCODING 374
SWIDTH 403 0
DWIDTH 3 0
BBX 3 8 0 -1
BITMAP
0A30
3250
7050
3890
0170
0420
0600
0100
ENDCHAR
STARTCHAR ycircumflex
ENCODING 375
SWIDTH 487 0
DWIDTH 4 0
BBX 4 10 0 -4
BITMAP
0460
0670
2002
6006
6008
1778
0006
0006
5106
1882
ENDCHAR
STARTCHAR Ydieresis
ENCODING 376
SWIDTH 403 0
DWIDTH 3 0
BBX 3 7 0 -1
BITMAP
3460
7050
3890
0170
0420
0600
0100
ENDCHAR
STARTCHAR Zacute
ENCODING 377
SWIDTH 571 0
DWIDTH 5 0
BBX 5 7 0 0
BITMAP
006000
011000
667000
003200
06C700
025000
087830
ENDCHAR
STARTCHAR zacute
ENCODING 378
SWIDTH 459 0
DWIDTH 4 0
BBX 4 6 0 0
BITMAP
0320
0500
6570
1390
3A20
3A83
ENDCHAR
STARTCHAR Zdotaccent
ENCODING 379
SWIDTH 571 0
DWIDTH 5 0
BBX 5 7 0 0
BITMAP
010000
031000
667000
003200
06C700
025000
087830
ENDCHAR
STARTCHAR zdotaccent
ENCODING 380
SWIDTH 459 0
DWIDTH 4 0
BBX 4 6 0 0
BITMAP
0200
0310
6570
1390
3A20
3A83
ENDCHAR
STARTCHAR Zcaron
ENCODING 381
SWIDTH 571 0
DWIDTH 5 0
BBX 5 7 0 0
BITMAP
022000
045000
667000
003200
06C700
025000
087830
ENDCHAR
STARTCHAR zcaron
ENCODING 382
SWIDTH 459 0
DWIDTH 4 0
BBX 4 6 0 0
BITMAP
2330
0610
6570
1390
3A20
3A83
ENDCHAR
STARTCHAR florin
ENCODING 402
SWIDTH 376 0
DWIDTH 3 0
BBX 5 8 -1 -2
BITMAP
005710
016140
044000
089400
016000
025000
225000
494000
ENDCHAR
STARTCHAR AEacute
ENCODING 508
SWIDTH 960 0
DWIDTH 8 0
BBX 8 7 0 0
BITMAP
00016000
16750000
5007A662
50066020
85589640
60034000
60049893
ENDCHAR
STARTCHAR aeacute
ENCODING 509
SWIDTH 881 0
DWIDTH 7 0
BBX 7 7 0 -1
BITMAP
00032000
00040000
06736700
167B0800
712A6200
58887540
00001200
ENDCHAR
STARTCHAR Oslashacute
ENCODING 510
SWIDTH 609 0
DWIDTH 5 0
BBX 5 7 0 -1
BITMAP
004000
022000
478500
606630
706070
2A8730
040000
ENDCHAR
STARTCHAR oslashacute
ENCODING 511
SWIDTH 487 0
DWIDTH 4 0
BBX 4 5 0 0
BITMAP
0240
0542
5496
6367
6C93
ENDCHAR
STARTCHAR Scommaaccent
ENCODING 536
SWIDTH 627 0
DWIDTH 5 0
BBX 5 8 0 -3
BITMAP
056710
070000
027500
600370
366660
001000
007000
004000
ENDCHAR
STARTCHAR scommaaccent
ENCODING 537
SWIDTH 514 0
DWIDTH 4 0
BBX 4 7 0 -3
BITMAP
3640
7230
0467
6778
0000
0250
0210
ENDCHAR
STARTCHAR circumflex
ENCODING 710
SWIDTH 375 0
DWIDTH 3 0
BBX 3 2 0 4
BITMAP
0910
4550
ENDCHAR
STARTCHAR caron
ENCODING 711
SWIDTH 375 0
DWIDTH 3 0
BBX 3 1 0 4
BITMAP
2740
ENDCHAR
STARTCHAR breve
ENCODING 728
SWIDTH 224 0
DWIDTH 2 0
BBX 2 1 0 3
BITMAP
44
ENDCHAR
STARTCHAR dotaccent
ENCODING 729
SWIDTH 152 0
DWIDTH 1 0
BBX 1 2 0 3
BITMAP
30
20
ENDCHAR
STARTCHAR ring
ENCODING 730
SWIDTH 333 0
DWIDTH 3 0
BBX 3 2 0 3
BITMAP
1510
2510
ENDCHAR
STARTCHAR ogonek
ENCODING 731
SWIDTH 254 0
DWIDTH 2 0
BBX 2 3 0 -2
BITMAP
11
71
12
ENDCHAR
STARTCHAR tilde
ENCODING 732
SWIDTH 402 0
DWIDTH 3 0
BBX 3 2 0 3
BITMAP
3220
4440
ENDCHAR
STARTCHAR hungarumlaut
ENCODING 733
SWIDTH 264 0
DWIDTH 2 0
BBX 2 2 0 3
BITMAP
33
34
ENDCHAR
STARTCHAR Wgrave
ENCODING 7808
SWIDTH 703 0
DWIDTH 6 0
BBX 6 6 0 0
BITMAP
004100
000200
500060
703044
70A007
484882
ENDCHAR
STARTCHAR wgrave
ENCODING 7809
SWIDTH 656 0
DWIDTH 5 0
BBX 5 5 0 0
BITMAP
003000
102200
703050
608070
488880
ENDCHAR
STARTCHAR Wacute
ENCODING 7810
SWIDTH 703 0
DWIDTH 6 0
BBX 6 6 0 0
BITMAP
003100
004000
500060
703044
70A007
484882
ENDCHAR
STARTCHAR wacute
ENCODING 7811
SWIDTH 656 0
DWIDTH 5 0
BBX 5 5 0 0
BITMAP
007100
100000
703050
608070
488880
ENDCHAR
STARTCHAR Wdieresis
ENCODING 7812
SWIDTH 703 0
DWIDTH 6 0
BBX 6 6 0 0
BITMAP
013300
013300
500060
703044
70A007
484882
ENDCHAR
STARTCHAR wdieresis
ENCODING 7813
SWIDTH 656 0
DWIDTH 5 0
BBX 5 5 0 0
BITMAP
011100
133500
703050
608070
488880
ENDCHAR
STARTCHAR Ygrave
ENCODING 7922
SWIDTH 403 0
DWIDTH 3 0
BBX 3 8 0 -1
BITMAP
0400
1310
7050
3890
0170
0420
0600
0100
ENDCHAR
STARTCHAR ygrave
ENCODING 7923
SWIDTH 487 0
DWIDTH 4 0
BBX 4 9 0 -4
BITMAP
0210
2032
6006
6008
1778
0006
0006
5106
1882
ENDCHAR
STARTCHAR endash
ENCODING 8211
SWIDTH 287 0
DWIDTH 2 0
BBX 3 1 0 2
BITMAP
6710
ENDCHAR
STARTCHAR emdash
ENCODING 8212
SWIDTH 512 0
DWIDTH 4 0
BBX 4 2 0 1
BITMAP
4775
1000
ENDCHAR
STARTCHAR quoteleft
ENCODING 8216
SWIDTH 102 0
DWIDTH 1 0
BBX 1 2 0 4
BITMAP
40
70
ENDCHAR
STARTCHAR quoteright
ENCODING 8217
SWIDTH 102 0
DWIDTH 1 0
BBX 1 2 0 4
BITMAP
40
70
ENDCHAR
STARTCHAR quotesinglbase
ENCODING 8218
SWIDTH 102 0
DWIDTH 1 0
BBX 1 3 0 -1
BITMAP
40
70
10
ENDCHAR
STARTCHAR quotedblleft
ENCODING 8220
SWIDTH 234 0
DWIDTH 2 0
BBX 2 3 0 4
BITMAP
11
66
67
ENDCHAR
STARTCHAR quotedblright
ENCODING 8221
SWIDTH 234 0
DWIDTH 2 0
BBX 2 3 0 4
BITMAP
11
66
67
ENDCHAR
STARTCHAR quotedblbase
ENCODING 8222
SWIDTH 341 0
DWIDTH 3 0
BBX 3 3 0 -1
BITMAP
1200
5710
2820
ENDCHAR
STARTCHAR dagger
ENCODING 8224
SWIDTH 375 0
DWIDTH 3 0
BBX 3 6 0 0
BITMAP
0100
0500
4A50
2600
0700
0600
ENDCHAR
STARTCHAR daggerdbl
ENCODING 8225
SWIDTH 375 0
DWIDTH 3 0
BBX 5 6 -1 0
BITMAP
007000
006000
27A620
26A710
006000
006000
ENDCHAR
STARTCHAR bullet
ENCODING 8226
SWIDTH 341 0
DWIDTH 3 0
BBX 3 2 0 1
BITMAP
1B10
1910
ENDCHAR
STARTCHAR ellipsis
ENCODING 8230
SWIDTH 612 0
DWIDTH 5 0
BBX 5 2 0 0
BITMAP
315130
84C480
ENDCHAR
STARTCHAR guilsinglleft
ENCODING 8249
SWIDTH 487 0
DWIDTH 4 0
BBX 4 4 0 0
BITMAP
0002
0272
4500
7772
ENDCHAR
STARTCHAR guilsinglright
ENCODING 8250
SWIDTH 403 0
DWIDTH 3 0
BBX 4 4 0 0
BITMAP
5200
0591
0470
6400
ENDCHAR
STARTCHAR fraction
ENCODING 8260
SWIDTH 309 0
DWIDTH 2 0
BBX 3 6 0 0
BITMAP
0140
0510
0700
1600
6100
7000
ENDCHAR
STARTCHAR Euro
ENCODING 8364
SWIDTH 741 0
DWIDTH 6 0
BBX 6 6 0 0
BITMAP
000261
015910
687420
496610
060000
027784
ENDCHAR
STARTCHAR trademark
ENCODING 8482
SWIDTH 1116 0
DWIDTH 9 0
BBX 9 5 0 0
BITMAP
5796870250
00600A7B50
0061071160
0043070080
0027050080
ENDCHAR
STARTCHAR minus
ENCODING 8722
SWIDTH 287 0
DWIDTH 2 0
BBX 3 1 0 2
BITMAP
6710
ENDCHAR
STARTCHAR commaaccent
ENCODING 63171
SWIDTH 375 0
DWIDTH 3 0
BBX 2 3 0 -3
BITMAP
01
07
13
ENDCHAR
STARTCHAR fi
ENCODING 64257
SWIDTH 551 0
DWIDTH 4 0
BBX 4 7 0 -1
BITMAP
0571
1544
4320
8AA1
0844
0466
0001
ENDCHAR
STARTCHAR fl
ENCODING 64258
SWIDTH 723 0
DWIDTH 6 0
BBX 4 6 0 0
BITMAP
0571
1534
4370
8AB1
0871
04A0
ENDCHAR
STARTCHAR .notdef
ENCODING -1
SWIDTH 375 0
DWIDTH 3 0
BBX 1 1 0 0
BITMAP
00
ENDCHAR
STARTCHAR .null
ENCODING -1
SWIDTH 0 0
DWIDTH 0 0
BBX 1 1 0 0
BITMAP
00
ENDCHAR
STARTCHAR nonmarkingreturn
ENCODING -1
SWIDTH 375 0
DWIDTH 3 0
BBX 1 1 0 0
BITMAP
00
ENDCHAR
ENDFONT
